<?xml version="1.0" standalone="no"?>
<!DOCTYPE svg PUBLIC "-//W3C//DTD SVG 1.1//EN" "http://www.w3.org/Graphics/SVG/1.1/DTD/svg11.dtd">
<svg width="100%" height="100%" viewBox="0 0 512 512" version="1.1" xmlns="http://www.w3.org/2000/svg" xmlns:xlink="http://www.w3.org/1999/xlink" xml:space="preserve" style="fill-rule:evenodd;clip-rule:evenodd;stroke-linejoin:round;stroke-miterlimit:1.41421;">
    <g transform="matrix(4.54681,0,0,4.52495,18.6563,123.392)">
        <g transform="matrix(0.597806,0,0,0.600694,-57.3269,-74.9183)">
            <path d="M158.8,259L159.3,259.5C161.621,261.821 164.769,264.497 168,265.5C170.049,266.136 175.525,265.9 177.6,265.9L180.3,265.9C181.978,265.9 183.664,266.7 185.4,266.7L188,266.7C190.985,266.7 193.992,266.376 196.9,265.7C197.239,265.621 196.948,264.7 196.6,264.7L192.3,264.7C185.065,264.7 177.827,264.629 170.6,264.3C169.297,264.241 167.019,262.581 165.7,263.9C161.503,261.802 158.837,258.194 155.3,255.3C154.798,254.93 154.525,254.306 154.028,253.929C153.849,253.793 153.461,253.627 153.36,253.829C153.231,254.088 153.464,254.44 153.674,254.64C155.3,256.186 157.214,257.414 158.8,259" style="fill:black;fill-rule:nonzero;stroke-width:0.37px;stroke:black;"/>
        </g>
        <g transform="matrix(0.597806,0,0,0.600694,-57.2725,-74.6991)">
            <path d="M119.2,134.4C119.1,135.2 119.1,135.9 119,136.7C119,143.93 120.173,152.925 123.2,159.6C129.699,173.93 132.537,172.175 139.6,186.3C142.715,191.397 145.8,197.651 145.8,203.8L145.8,209.1C145.8,209.359 146.091,211.809 146.8,211.1C147.328,210.748 147.296,209.383 147.2,209L147.2,206.2C147.2,203.178 146.918,200.626 146.5,197.7C144.135,186.665 136.141,178.271 130.4,169C125.316,160.79 122.879,155.541 120.7,146.1C118.129,130.675 124.554,113.683 135.8,103L135.8,102.9C145.196,93.504 155.947,87.315 168.6,83.7C169.361,83.51 170.139,83.39 170.9,83.2C173.202,82.433 176.892,82.858 179.1,82.7C189.809,82.7 201.521,84.811 211.6,88.4C216.081,89.996 219.977,93.027 224.5,94.5C225.078,94.688 225.344,92.972 224.8,92.7C221.306,90.371 217.736,88.668 214,86.8C213.7,86.7 213.4,86.5 213,86.4C207.31,84.977 201.926,81.932 196.1,81.1C195.7,81 195.3,81 194.9,80.9C190.705,79.851 185.788,80.2 181.5,80.2C150.63,76.95 123.304,105.669 119.2,134.4" style="fill:black;fill-rule:nonzero;stroke-width:0.37px;stroke:black;"/>
        </g>
        <g transform="matrix(0.597806,0,0,0.600694,-57.2725,-74.6991)">
            <path d="M223.3,92.7C220.948,93.876 225.595,96.318 225.8,96.5C228.767,99.126 232.116,101.435 234.5,104.6C240.822,112.992 245.9,123.832 245.9,134.6L245.9,136.8C245.9,138.161 245.551,142.389 245.5,143.1C245.5,144.586 245.089,146.057 244.8,147.5C244.601,148.893 243.999,150.207 243.8,151.6C238.603,167.192 225.965,177.271 218.8,191.6C218.7,191.8 218.5,192 218.4,192.2C215.821,196.069 214.892,201.265 214.9,205.8C214.903,207.389 215.266,208.971 215.7,210.5C215.908,211.232 216.262,213.038 216.8,212.5C217.627,211.673 217.079,210.097 216.9,209.2C216.8,208.8 216.7,208.5 216.6,208.1C215.801,205.703 215.63,198.87 217.7,196.8C227.139,177.923 250.783,159.699 246.8,135.8L246.8,134.2C246.8,119.752 237.293,99.396 223.9,92.7C223.8,92.7 223.8,92.6 223.7,92.6C223.4,92.7 223.3,92.7 223.3,92.7" style="fill:black;fill-rule:nonzero;stroke-width:0.37px;stroke:black;"/>
        </g>
        <g transform="matrix(0.597806,0,0,0.600694,-57.2725,-74.6991)">
            <path d="M146.2,210.5C146.1,210.5 146,210.6 146,210.6C145.881,210.719 145.852,211.352 146,211.5C146,211.5 148.138,211.919 149.1,212.4L150.8,212.4C151.822,212.4 154.339,212.04 155.3,211.8C159.826,211.234 164.342,210.185 168.9,209.9C179.171,208.53 192.795,210.194 202.9,211.8C206.445,212.363 212.528,215.515 216.3,213C216.523,212.777 216.7,212.545 216.7,212.2C216.7,211.246 215.9,211.017 215.9,212C215.8,212.1 215.6,212.2 215.5,212.2C214.459,212.46 211.97,212.049 211.1,211.8C208.15,211.379 205.261,210.67 202.3,210.3C201.6,210.2 200.9,210.1 200.2,210C189.786,208.698 181.015,207.791 170.5,208.5C162.46,209.042 154.353,212.131 146.2,210.5" style="fill:black;fill-rule:nonzero;stroke-width:0.37px;stroke:black;"/>
        </g>
        <g transform="matrix(0.597806,0,0,0.600694,-57.2725,-74.6991)">
            <path d="M239.4,129C239.2,130 238.9,131 238.7,132C238.7,133.399 238.329,135.127 238.1,136.5L238.1,137.1C238.1,137.4 238.1,137.7 238,138L238,142.1C238,142.903 238.2,143.697 238.2,144.5L238.2,145.8C238.2,147.386 237.6,148.954 237.6,150.5L237.6,150.6C237.6,154.829 233.957,159.958 232.5,163.6C232.187,164.227 231.913,164.873 231.6,165.5L231.6,165.4C230.778,167.043 229.707,168.389 228.7,169.9C228.6,170 228.6,170 228.5,170.1C228.196,170.404 227.528,171.259 227.3,171.6C226.547,172.353 226.667,172.317 225.8,173.4L225.7,173.5C225.7,173.5 225.6,173.6 225.6,173.7C225.4,174 225.2,174.3 225,174.6C224.9,174.7 224.8,174.8 224.8,174.9L224.7,175C224.6,175.2 224.4,175.4 224.3,175.7C224.043,176.085 223.927,176.573 223.6,176.9C223.01,178.08 222.244,179.484 221.5,180.6C221.4,180.7 221.4,180.8 221.3,180.9C221.245,180.999 219.668,184.132 219,184.8C219,184.8 219,184.9 218.9,184.9C218.6,185.4 218.3,186 218.1,186.5C217.632,186.968 217.497,187.806 217.2,188.4C217.2,188.654 217.014,188.873 216.9,189.1C216.7,189.5 216.5,190 216.4,190.4C215.668,192.23 214.68,194.081 214.2,196C214,196.6 213.8,197.2 213.6,197.8C213.6,198.317 213.326,198.798 213.2,199.3C212.592,200.517 212.4,202.617 212.4,203.9L212.4,207C212.4,207.4 212.5,207.9 212.5,208.3L212.5,209.8C212.4,209.8 212.4,209.7 212.3,209.7L212.2,209.6C211.46,209.23 210.63,209.065 209.9,208.7C209.8,208.7 209.7,208.6 209.5,208.6C209.4,208.6 209.3,208.6 209.3,208.6C209,208.5 208.6,208.5 208.3,208.4C205.686,208.4 202.888,207.959 200.3,207.7C198.747,207.478 196.976,207.3 195.4,207.3L188.1,207.3C183.794,207.3 179.497,207.9 175.2,207.9C175.012,207.9 174.52,207.88 174.4,208C172.274,208.304 170.113,208.377 168,208.8C164.072,208.8 159.875,210.054 156,210.7C155.9,210.7 155.8,210.7 155.8,210.7C154.864,211.012 153.849,211.029 152.9,211.3C150.999,211.3 148.816,212.381 146.9,212.7C146.8,212.7 146.8,212.8 146.8,212.9L146.8,213C146.8,213 148.322,212.6 149.1,212.6C149.8,212.4 150.5,212.3 151.2,212.1C151.7,212 152.1,211.9 152.6,211.8C153.398,211.8 155.161,211.307 155.8,211.2C156.2,211.1 156.5,211.1 156.9,211C159.881,210.404 162.919,210.096 165.9,209.5C166.6,209.4 167.2,209.3 167.9,209.2C168.909,209.2 169.901,208.943 170.9,208.8C172.34,208.8 173.766,208.53 175.2,208.4C179.696,208.4 184.799,208.534 189.2,207.8L193.4,207.8C198.379,207.8 203.34,209 208.3,209L208.7,209C209.302,209.201 210.683,209.7 211.3,209.7C211.502,209.801 212.7,210.147 212.7,210.5L212.8,210.5L212.9,210.4C212.9,210.3 212.9,210.3 212.9,210.2L212.9,209.1C212.9,208.6 212.8,208.2 212.8,207.7L212.8,203.9C213.08,202.219 213.258,200.606 213.9,199C213.9,198.9 214,198.7 214,198.6C214.19,198.03 214.41,197.47 214.6,196.9C214.6,194.693 216.78,191.451 217.6,189.4C217.6,189.3 217.7,189.2 217.7,189.2C218.185,188.231 218.643,187.228 219.2,186.3C221.218,184.282 222.826,180.448 224.1,177.9C224.1,177.66 224.33,177.47 224.5,177.3C224.7,177 224.9,176.7 225,176.4C225.51,175.89 225.75,175.163 226.2,174.6L226.3,174.5C227.236,173.564 228.099,171.701 229.3,171.1C230.753,169.283 230.57,169.344 231.8,167.5L233.3,164.5C234.493,162.115 235.407,159.586 236.6,157.2C236.6,156.609 237.131,155.739 237.4,155.2L237.4,155.1C237.4,155 237.5,154.8 237.5,154.7C237.852,153.644 238.218,152.49 238.4,151.4C238.4,151.3 238.5,151.1 238.5,151C238.684,150.264 238.9,149.17 238.9,148.4C238.9,147.981 238.887,147.34 239,147L239,145C239,143.931 238.8,142.869 238.8,141.8L238.8,138.2C238.8,137.8 238.8,137.5 238.9,137.1L238.9,137C238.9,134.519 239.796,132.022 240.2,129.6C240.2,129.5 240.2,129.5 240.2,129.4C240.2,129.4 240.2,129.3 240.1,129.2C239.4,128.9 239.4,129 239.4,129" style="fill:black;fill-rule:nonzero;stroke-width:0.37px;stroke:black;"/>
        </g>
        <g transform="matrix(0.597806,0,0,0.600694,-57.2725,-74.6991)">
            <path d="M149.6,231.8L149.6,247.7C149.82,249.682 149.632,250.009 150.8,251.7C151.024,252.025 152.218,253.082 152.8,252.5C153.087,251.927 153,251.993 153,251.3C153,250.671 152.317,250.509 151.9,250.3C151.649,250.3 151.057,249.857 151,249.8C150.9,249.7 150.9,249.6 150.8,249.5C149.406,248.106 150.26,245.566 150.4,243.6L150.4,220.7C150.4,219.03 151.142,214.284 150.4,212.8C150.3,212.7 150.3,212.5 150.1,212.5C149.924,212.703 149.724,212.932 149.7,213.2C149.555,214.794 149.609,216.4 149.6,218C149.575,222.6 149.313,227.209 149.6,231.8" style="fill:black;fill-rule:nonzero;stroke-width:0.37px;stroke:black;"/>
        </g>
        <g transform="matrix(0.597806,0,0,0.600694,-57.2725,-74.6991)">
            <path d="M211.7,248.6C211.187,249.455 210.146,250.592 209.3,251.1C208.943,251.457 208.815,252.215 209.2,252.6L209.3,252.7C209.4,252.8 209.5,252.8 209.6,252.7C210,252.5 210.3,252.4 210.6,252.1C210.8,252 211,251.8 211.2,251.7C212.345,250.841 213.3,249.125 213.3,247.7C213.678,246.567 213.384,245.03 213.3,243.9C213.056,240.634 212.861,237.365 212.6,234.1C212.5,232.9 212.4,231.7 212.3,230.5C212.2,229.4 212.1,228.3 212,227.2C212,227.233 212,227.133 212,227.1L212,227C212,225.534 211.98,223.239 211.5,221.8L211.5,219.2C211.5,218.5 211.6,217.7 211.6,217L211.6,215.9C211.6,215.7 211.5,215.4 211.3,215.3C211.2,215.3 211.2,215.3 211.1,215.3C209.63,216.035 210.445,220.674 210.5,221.5C210.959,228.4 211.416,235.301 211.9,242.2C212.026,243.996 212.582,246.836 211.7,248.6M211.6,217L211.6,217.1L211.6,217M212.4,234.4C212.4,234.5 212.4,234.6 212.4,234.6C212.4,234.5 212.4,234.4 212.4,234.4M211.8,227.3C211.8,227.313 211.8,227.325 211.8,227.338C211.8,227.325 211.8,227.313 211.8,227.3C211.8,227.313 211.8,227.325 211.8,227.338C211.8,227.325 211.8,227.313 211.8,227.3" style="fill:black;fill-rule:nonzero;stroke-width:0.37px;stroke:black;"/>
        </g>
        <g transform="matrix(0.597806,0,0,0.600694,-57.2725,-74.6991)">
            <path d="M210.9,249.5C205.012,253.916 197.161,255.4 189.8,255.4L183.1,255.4C181.975,255.4 179.487,255.27 178.3,255.1C173.653,255.1 168.819,253.447 164.3,252.6C162.087,252.284 159.87,251.842 157.7,251.3C157,251.2 156.3,251 155.7,250.8C154.033,250.522 152.419,249.986 150.8,249.5C150.7,249.5 150.6,249.6 150.6,249.6C149.718,251.364 154.12,252.346 154.44,252.414C156.603,252.875 158.825,253.001 161,253.4C171.566,255.338 182.22,258.551 193.1,257.1C193.5,257.1 193.9,257 194.2,257C194.6,256.9 195,256.9 195.4,256.8C195.8,256.7 196.2,256.7 196.6,256.6C197,256.5 197.4,256.4 197.8,256.4C199.289,256.187 200.754,255.813 202.2,255.4C203.561,255.206 205.404,254.524 206.7,254.2C206.9,254.1 207.2,254 207.4,253.9L208.6,253.3C208.8,253.2 209,253 209.3,252.9C209.988,252.384 211.679,250.936 211.3,249.8C211.3,249.576 211,249.2 211,249.2C211,249.4 210.9,249.4 210.9,249.5" style="fill:black;fill-rule:nonzero;stroke-width:0.37px;stroke:black;"/>
        </g>
        <g transform="matrix(0.597806,0,0,0.600694,-57.2725,-74.6991)">
            <path d="M208.9,215.9C193.718,220.961 177.993,223.4 161.9,223.4L157.2,223.4C155,223.4 152.8,223.3 150.6,223.3C149.879,223.3 149.916,225.3 150.6,225.3L162.5,225.3C166.117,225.3 170.44,225.59 174,224.7C177.127,224.309 180.273,224.091 183.4,223.7C188.173,223.103 192.791,222.877 197.5,221.7C201.346,220.418 205.443,219.629 209.1,217.8C209.634,217.266 209.623,216.445 209.3,215.8C209.098,215.598 209.145,215.655 208.9,215.9" style="fill:black;fill-rule:nonzero;stroke-width:0.37px;stroke:black;"/>
        </g>
        <g transform="matrix(0.597806,0,0,0.600694,-57.2725,-74.6991)">
            <path d="M210.1,220.4C207.812,221.925 204.757,222.943 202.8,224.9C186.634,232.983 167.656,232.254 150.1,231C149.767,231 149.777,231.918 150.1,232C151.75,232.421 153.501,232.192 155.2,232.3C159.767,232.592 164.323,233.2 168.9,233.2L173.5,233.2C178.144,233.2 182.755,232.609 187.3,231.7C192.644,231.032 197.996,229.202 202.8,226.8C203,226.7 203.1,226.6 203.3,226.5C203.4,226.4 203.6,226.3 203.7,226.3C205.48,225.41 207.09,224.126 208.8,223.1C209.121,222.939 209.951,222.449 210.2,222.2C210.641,221.759 210.551,221.103 210.3,220.6L210.2,220.5L210.1,220.5C210.2,220.3 210.2,220.3 210.1,220.4" style="fill:black;fill-rule:nonzero;stroke-width:0.37px;stroke:black;"/>
        </g>
        <g transform="matrix(0.597806,0,0,0.600694,-57.2725,-74.6991)">
            <path d="M209.1,228.3C208.571,228.565 208.609,228.591 208.2,229C205.422,230.852 202.702,232.839 199.7,234.3C189.027,239.493 176.322,238.887 164.9,239C161.143,239.037 154.622,238.961 151.1,237.2C150.9,237.1 150.7,236.9 150.5,236.7C150.3,236.5 150.026,237.047 149.9,237.3C149.504,238.886 151.993,239.392 152.9,239.5C164.325,240.864 168.195,241.267 179.7,240.5C181.2,240.3 182.8,240.2 184.3,240C185.1,239.9 185.9,239.8 186.7,239.7C187.5,239.6 188.4,239.4 189.2,239.3C195.656,238.009 204.718,236.003 209.2,230.4L209.1,230.5C209.1,230.5 209.349,230.151 209.5,230C209.699,229.403 209.671,228.841 209.4,228.3C209.149,228.049 209.229,228.171 209.1,228.3M209.3,230.6C209.325,230.6 209.35,230.6 209.375,230.6C209.35,230.6 209.325,230.6 209.3,230.6C209.325,230.6 209.35,230.6 209.375,230.6C209.35,230.6 209.325,230.6 209.3,230.6" style="fill:black;fill-rule:nonzero;stroke-width:0.37px;stroke:black;"/>
        </g>
        <g transform="matrix(0.597806,0,0,0.600694,-57.2725,-74.6991)">
            <path d="M210.8,235.2C208.377,236.008 208.357,237.307 206.3,238.6C203.647,240.268 200.981,241.966 198.1,243.2C185.825,248.46 171.985,248.223 159,246.6C155.555,245.911 153.177,245.439 149.9,243.8C149.416,243.639 149.161,245.04 149.6,245.3C151.86,246.637 154.418,247.525 157,248C162.438,249.001 167.971,249.7 173.5,249.7L175.9,249.7C178.846,249.7 182.031,248.983 184.9,248.6C186.346,248.238 188.037,248.009 189.5,247.8C195.814,246.116 200.128,244.286 205.9,241.4C206.1,241.3 206.4,241.1 206.6,241C207.608,240.395 208.307,239.262 209.3,238.6C209.654,238.246 210.084,237.977 210.5,237.7C210.7,237.6 210.9,237.5 211.1,237.4C211.617,237.142 212.639,235.1 211.5,235.1C211.264,235.1 210.8,235.2 210.8,235.2" style="fill:black;fill-rule:nonzero;stroke-width:0.37px;stroke:black;"/>
        </g>
        <g transform="matrix(0.597806,0,0,0.600694,-57.2725,-74.6991)">
            <path d="M205,255.4C204.8,255.7 204.5,256 204.3,256.3L204.3,256.2C203.771,255.816 203.434,256.909 203.3,257.1C202.423,258.35 201.447,259.53 200.6,260.8C200.147,261.253 199.784,261.788 199.4,262.3C198.716,262.984 198.082,263.718 197.4,264.4C197.294,264.613 197.141,265.3 197.6,265.3C197.8,265.1 197.917,264.7 198.2,264.7C200.862,262.038 202.538,258.462 205.2,255.8C205.2,255.63 205.3,255.47 205.3,255.3C205.3,255.2 205.3,255.2 205.2,255.2L205,255.4" style="fill:black;fill-rule:nonzero;stroke-width:0.37px;stroke:black;"/>
        </g>
        <g transform="matrix(0.597806,0,0,0.600694,-57.2725,-74.6991)">
            <path d="M143.2,149.4C142.893,150.015 143.481,150.749 143.7,151.4C144.515,153.818 145.295,156.255 146.3,158.6C146.3,160.557 149.135,165.442 149.9,167.1C152.182,172.045 153.898,177.272 156.6,182L159.3,188.3C161.791,193.697 163.826,199.296 166.3,204.7C166.878,205.962 167.65,207.132 168.442,208.272C168.632,208.545 169.132,209.219 169.216,208.898C169.387,208.24 169.015,207.545 168.8,206.9C168.7,206.7 168.6,206.4 168.5,206.2C168.4,205.8 168.2,205.5 168.1,205.1C166.927,201.58 165.149,198.255 163.6,194.9C163.5,194.6 163.3,194.4 163.2,194.1C163,193.7 162.8,193.2 162.6,192.8C162.5,192.5 162.4,192.2 162.2,191.9C159.856,184.869 156.52,177.74 153.2,171.1C152.407,168.721 150.994,166.583 150.2,164.2C150.1,163.9 150,163.6 149.9,163.3C149.8,163 149.6,162.7 149.5,162.3C148.919,161.429 148.585,160.377 148,159.5C147.9,159.3 147.7,159 147.6,158.8C146.692,156.984 146.108,155.016 145.2,153.2C145.053,152.76 144.554,151.581 144.3,151.2C144.2,151.1 144.2,151 144,151C143.8,150.5 143.7,150 143.5,149.5C143.5,149.4 143.5,149.4 143.4,149.4L143.3,149.4L143.2,149.4" style="fill:black;fill-rule:nonzero;stroke-width:0.37px;stroke:black;"/>
        </g>
        <g transform="matrix(0.597806,0,0,0.600694,-57.2725,-74.6991)">
            <path d="M210.4,153.5C206.89,159.819 203.848,166.254 201,172.9C200.9,173.2 200.7,173.6 200.6,173.9C196.952,181.195 195.396,190.321 193.8,198.3C193.7,198.9 193.6,199.4 193.5,200C193.4,200.6 193.3,201.2 193.2,201.8C193.1,202.5 193,203.1 192.9,203.8C192.758,204.367 192.237,209.063 193.3,208C193.5,207.8 193.6,207.5 193.6,207.2C193.6,204.52 194.741,200.945 195.4,198.4C198.565,186.183 201.133,174.134 206.8,162.8C206.8,162.8 206.8,162.7 206.9,162.7C208.087,160.326 210.254,157.784 210.9,155.2C210.9,154.931 211,154.669 211,154.4C211,154.318 210.917,153.6 210.7,153.6L210.6,153.6C210.5,153.4 210.5,153.4 210.4,153.5" style="fill:black;fill-rule:nonzero;stroke-width:0.37px;stroke:black;"/>
        </g>
        <g transform="matrix(0.597806,0,0,0.600694,-57.2725,-74.6991)">
            <path d="M212.4,150.7C212.3,150.9 212.2,151 212.1,151.2C212.1,151.3 212,151.3 212,151.4C211.393,152.615 210.411,153.579 209.8,154.8C209.7,155 209.6,155.2 209.5,155.4C209.5,155.793 209.227,155.916 209.2,156.3C209.19,156.437 209.218,156.59 209.3,156.7C209.34,156.753 209.5,156.767 209.5,156.7C210.985,153.729 211.165,153.853 213,151.1C213.258,150.842 213.3,150.768 213.3,150.4C213.432,150.268 213.853,149.509 213.5,149.3L213.4,149.3C213.324,149.224 213.276,149.176 213.2,149.3C212.92,149.759 212.722,150.27 212.4,150.7" style="fill:black;fill-rule:nonzero;stroke-width:0.37px;stroke:black;"/>
        </g>
        <g transform="matrix(0.597806,0,0,0.600694,-57.2725,-74.6991)">
            <path d="M164,120.9C163.9,121.1 163.8,121.3 163.6,121.5C163.137,122.427 162.517,123.631 162.3,124.5C162.2,124.7 162.2,125 162.1,125.2C161.4,124.5 160.6,123.9 159.6,123.6C157.754,123.231 157.011,123.789 155.8,125C155.7,125.2 155.5,125.4 155.4,125.5C155.2,125.8 154.9,126.1 154.8,126.5C154.3,127.3 153.9,128.2 153.5,129.1C152.803,129.797 151.215,127.843 150,127.6C147.805,126.868 145.954,129.085 145.5,130.9C144.951,131.997 144.459,137.7 144.1,137.7C136.226,135.075 142.144,150.969 142.289,151.283C142.58,151.912 143.208,152.555 143.9,152.6C144.305,152.626 144.387,151.687 144.1,151.4C142.339,150.52 140.97,146.565 140.6,144.9C140.5,144.4 140.4,143.9 140.3,143.5C140.3,141.413 140.226,140.774 141.8,139.2C142,139.1 142.2,139 142.4,138.9C143.183,138.639 143.907,138.853 144.6,139.2C144.946,141.274 145.444,143.339 146.2,145.3C146.756,146.742 149.934,148.989 150.387,145.92C150.781,143.255 147.427,139.416 145.4,138.2C145.3,138.1 145.1,138 145,138L145,137.9C145,135.485 144.981,133.138 146.1,130.9C146.2,130.8 146.2,130.7 146.3,130.6C146.4,130.5 146.5,130.3 146.6,130.2C147.438,129.362 148.87,129.332 150.056,129.358C154.525,129.457 152.49,135.518 153.114,137.762C153.687,139.825 154.486,141.986 156,143.5L156.4,143.5C156.5,143.5 156.6,143.4 156.6,143.4L156.7,143.3C156.8,143.2 156.8,143.2 156.9,143.1C157,142.9 157.2,142.7 157.3,142.5C157.4,142.4 157.4,142.2 157.5,142.1C159.09,138.921 155.672,132.915 153.9,130.7L153.8,130.6C153.9,130.4 153.9,130.2 154,130.1C154.73,128.64 155.314,127.086 156.5,125.9C156.722,125.678 157.078,125.622 157.3,125.4C161.596,123.968 161.695,128.715 160.8,131.4L160.8,133.9C160.8,136.673 161.555,139.403 162.2,142.1C162.347,142.715 163.642,144.629 164.7,144.1L164.8,144.1C164.963,144.1 165.299,143.901 165.4,143.8C168.802,140.398 167.643,134.246 165.6,130.5C165.5,130.3 165.4,130.2 165.3,130C165.2,129.8 165,129.5 164.9,129.3C164.8,129.2 164.8,129.1 164.7,129C163.728,127.541 163.903,127.644 162.7,126.2C162.7,123.985 164.649,121.751 166.4,120.7C166.7,120.6 167,120.4 167.3,120.3C169.79,120.3 170.916,121.22 172.5,123.2L172.5,123.3C172.4,123.6 172.2,123.8 172.1,124.1C171.436,125.429 171.512,125.319 171,126.6C170.715,126.885 170.472,128.814 170.4,129.1C170.4,129.474 170.276,130.748 170.1,131.1L170.1,133.2C170.1,134.184 171.505,142.495 174.3,139.7C176.861,137.139 175.987,132.299 175.6,129.2C175.255,127.82 174.879,126.295 174.6,124.9C174.4,124.3 174.2,123.8 174,123.2C174.1,123.1 174.1,123 174.2,123C174.848,122.352 175.552,121.748 176.2,121.1C176.709,120.591 177.564,120.512 178.2,120.3C180.033,120.3 182.4,122.764 182.4,124.7C182,125.3 181.8,126 181.6,126.7C181.5,127 181.4,127.4 181.3,127.7C181.111,128.643 180.833,129.567 180.6,130.5C180.29,131.739 180.258,133.032 180.1,134.3C180.1,136.183 179.41,140.205 181.6,141.3L181.7,141.3C182.372,141.3 182.585,141.315 183.1,140.8C183.2,140.7 183.2,140.6 183.3,140.5C183.4,140.4 183.4,140.2 183.5,140.1C185.645,135.809 184.6,129.598 183.6,125.1C183.7,125 183.7,124.9 183.8,124.8C184.1,124.4 184.4,124 184.7,123.6C184.8,123.5 185,123.4 185.1,123.2C185.79,122.51 186.541,122.43 187.4,122C187.4,122 187.811,121.894 188,121.8C190.099,121.275 193.419,125.781 192.1,127.1C191.9,127.5 191.6,127.9 191.5,128.4C191.373,128.654 190.915,130.056 190.8,130.4C190.7,131 190.6,131.6 190.5,132.2C190.5,132.928 190.4,135.9 191.9,135.9L192,135.9C192.194,135.9 192.363,135.737 192.5,135.6C193.259,134.841 193.4,132.989 193.4,132L193.4,128.9C193.4,128.6 193.4,128.4 193.3,128.1C193.3,128 193.3,127.9 193.3,127.7C193.4,127.6 193.4,127.5 193.5,127.5C193.7,127.3 193.8,127.1 194,127L193.9,127.1C194.2,126.8 194.5,126.5 194.8,126.3C198.582,124.409 201.103,128.521 201.2,131.9C201.252,133.718 198.157,134.725 197.5,135.9C195.809,138.922 194.051,142.02 193.3,145.4C193.3,148.683 191.675,151.272 195.4,151.8C196.068,151.132 196.354,150.146 197,149.5C198.492,146.516 199.568,143.481 200.8,140.4L201.4,138C201.93,136.409 202.1,134.44 202.1,132.8C204.349,131.301 210.7,129.941 210.7,134.4C210.01,134.86 210.055,134.745 209.4,135.4C209.2,135.6 209.1,135.7 208.9,135.9C208.8,136.1 208.6,136.2 208.5,136.4C207.599,137.301 206.808,138.338 206.1,139.4C205.668,140.264 205.308,140.975 205,141.9C204.334,145.897 206.894,145.405 208.9,143.3C210.428,141.696 211.5,137.72 211.5,135.6C214.888,135.6 217.5,136.133 217.5,140.3L217.5,141.9C217.5,143.852 216.186,145.542 215.6,147.3C214.102,150.296 211.297,152.406 209.8,155.4C209.54,155.92 209.163,156.373 208.9,156.9C208.9,157.29 209.3,158 209.3,158C212.78,154.52 218.3,147.679 218.3,142.4L218.3,140.3C218.3,137.527 217.296,135.347 215.1,133.7C214.061,133.181 212.297,133.301 211.3,133.8C211.3,133.047 210.931,132.294 210.7,131.6C210.4,131.3 210.578,131.139 210.1,130.9C207.695,128.495 204.218,129.154 201.6,130.9C201.059,128.194 199.953,124.726 197.3,123.4C195.571,122.536 193.438,124.293 192.5,125.7C192.5,125.6 192.4,125.4 192.4,125.3C190.697,119.34 185.909,118.437 182.6,123.4C182.5,123 182.3,122.7 182.2,122.3C181.46,120.45 177.048,116.004 175.2,119.7C174.046,120.854 173.823,120.529 173,121.9C172.064,120.028 170.138,118.2 167.9,118.2L167.8,118.2C166.756,117.678 164.267,120.231 164,120.9M173.1,124.2C173.1,124.1 173.2,124.1 173.2,124C174.055,126.566 175,129.546 175,132.3L175,134.6C174.9,135.2 174.9,135.8 174.7,136.4C174.6,136.7 174.5,137 174.4,137.3C174.4,137.617 174.039,138.1 173.7,138.1C173.6,138.1 173.5,138.1 173.4,138.2C172.708,138.2 172.11,137.53 171.9,136.9C171.486,136.073 171.344,134.862 171.2,134C171.2,133.7 171.1,133.5 171.1,133.2L171.1,131C171.1,130.352 171.277,128.847 171.6,128.2L172.2,126.4C172.45,125.65 172.847,124.958 173.1,124.2M182.8,126.1C183.595,129.279 183.792,132.548 183.4,135.8C183.29,136.713 182.988,138.387 182.5,139.2C182.4,139.3 182.4,139.4 182.3,139.5C182.3,139.5 181.911,139.7 181.7,139.7C181.7,139.7 181.237,139.275 181.1,139C180.764,138.328 180.97,138.11 180.7,137.3L180.7,135C180.7,132.154 181.53,128.641 182.8,126.1M162.4,127.5C165.076,130.845 168.494,136.577 165.9,140.9C165.8,141.2 165.6,141.4 165.4,141.6C165.217,141.783 165.038,141.981 164.8,142.1C164.7,142.1 164.6,142.1 164.5,142.1C164.4,142.1 164.3,142.1 164.3,142.1C163.7,141.9 163.2,141.4 163,140.8C162.228,139.256 161.9,137.235 161.9,135.5L161.9,130.8C161.9,129.812 162.085,128.446 162.4,127.5M192.5,128.5L192.5,131.7C192.4,132.3 192.4,133 192.2,133.6C192.2,133.7 192.1,133.8 192.1,133.9L192.1,134C191.995,134.171 191.907,134.1 191.7,134.1C191.405,134.1 191.448,133.748 191.3,133.6C191.3,132.891 191.177,132.905 191.2,132.2C191.236,131.111 191.634,130.069 192.1,129.1C192.204,128.883 192.393,128.715 192.5,128.5M153.6,131.7C155.359,134.046 157,137.061 157,140.1L157,140.7C157,140.987 156.756,141.272 156.5,141.4L156.4,141.5C156.026,141.5 155.951,141.551 155.6,141.2C154.831,140.431 154.626,139.479 154.3,138.5C154.2,138.2 154.1,137.9 154,137.6C153.62,136.46 153.4,135.002 153.4,133.8L153.4,133.9C153.4,133.015 153.322,132.535 153.6,131.7M201.1,133.3C201,134.2 200.9,135 200.7,135.8C200.7,136.35 200.474,136.878 200.3,137.4C200.1,138.1 199.9,138.8 199.7,139.5C199.6,139.8 199.5,140.1 199.4,140.4C199.4,140.6 199.3,140.7 199.3,140.9C199.1,141.4 199,141.8 198.8,142.3C198.408,143.475 197.787,144.561 197.3,145.7C196.9,146.636 196.457,148.143 195.7,148.9C195.6,149 195.5,149.1 195.5,149.3C195.3,149.6 195.1,149.9 194.9,150.1C194.8,150.2 194.6,150.4 194.4,150.5C193.716,150.5 193.688,149.524 193.7,149.1C193.728,148.131 193.764,147.159 193.9,146.2C194.362,142.939 195.977,139.837 197.7,137.1C198.18,136.338 198.796,135.668 199.4,135C199.948,134.394 200.715,134.069 201.1,133.3M210.6,135.9C211.175,135.716 210.499,137.105 210.4,137.7C210.4,137.909 210.136,138.792 210.1,138.9C209.599,140.154 209.176,141.324 208.2,142.3C207.748,142.752 207.275,143.112 206.7,143.4L206.6,143.4C206.346,143.4 206.328,143.428 206.1,143.2L206,143.1C206,141.244 207.111,139.622 208.3,138.3C208.552,138.02 208.864,137.794 209.1,137.5C209.226,137.343 209.254,137.123 209.375,136.962C209.707,136.52 210.146,136.203 210.6,135.9M182.4,139.3C182.4,139.325 182.4,139.35 182.4,139.375C182.4,139.35 182.4,139.325 182.4,139.3C182.4,139.325 182.4,139.35 182.4,139.375C182.4,139.35 182.4,139.325 182.4,139.3M145.4,139.5C146.472,140.143 147.245,141.167 147.986,142.143C149.099,143.608 150.109,145.331 150.3,147.2C150.377,147.956 150.1,148.054 150.1,148.8C150.1,148.8 150.1,148.9 150,148.9L149.9,148.9L149.8,148.9C149.7,148.9 149.7,148.9 149.6,148.9C147.668,147.934 147.143,145.265 146.5,143.5C146.033,142.218 145.4,140.903 145.4,139.5M181.8,139.6L181.9,139.6L181.8,139.6M156.3,141.5C156.3,141.513 156.3,141.525 156.3,141.538C156.3,141.525 156.3,141.513 156.3,141.5C156.3,141.513 156.3,141.525 156.3,141.538C156.3,141.525 156.3,141.513 156.3,141.5M197,146.8C196.987,146.8 196.975,146.8 196.962,146.8C196.975,146.8 197.013,146.8 197,146.8C196.975,146.8 196.95,146.8 196.925,146.8C196.95,146.8 196.975,146.8 197,146.8M149.9,149C149.883,149 149.865,149.002 149.85,149.011C149.84,149.016 149.832,149.022 149.826,149.032C149.823,149.037 149.825,149.043 149.831,149.044C149.837,149.044 149.843,149.043 149.849,149.04C149.854,149.038 149.859,149.035 149.864,149.031C149.878,149.021 149.888,149.012 149.9,149C149.888,149.012 149.878,149.021 149.864,149.031C149.859,149.035 149.854,149.038 149.849,149.04C149.843,149.043 149.837,149.044 149.831,149.044C149.825,149.043 149.823,149.037 149.826,149.032C149.832,149.022 149.84,149.016 149.85,149.011C149.865,149.002 149.883,149 149.9,149" style="fill:black;fill-rule:nonzero;stroke-width:0.37px;stroke:black;"/>
        </g>
    </g>
</svg>
