<?xml version="1.0" encoding="utf-8"?>
<!DOCTYPE svg PUBLIC "-//W3C//DTD SVG 1.1//EN" "http://www.w3.org/Graphics/SVG/1.1/DTD/svg11.dtd">
<svg version="1.1" id="Layer_1" xmlns="http://www.w3.org/2000/svg" xmlns:xlink="http://www.w3.org/1999/xlink" x="0px" y="0px"
     width="24px" height="24px" viewBox="0 0 24 24" enable-background="new 0 0 24 24" xml:space="preserve">
<g>
    <g>
        <path fill="#657F2B" d="M12.008,1.781c0.619,0,1.219,0.329,1.688,0.926c0.529,0.674,0.82,1.585,0.82,2.566
            s-0.291,1.892-0.82,2.566c-0.469,0.597-1.068,0.926-1.688,0.926s-1.219-0.329-1.688-0.926C9.792,7.166,9.5,6.254,9.5,5.273
            s0.292-1.892,0.82-2.566C10.789,2.11,11.388,1.781,12.008,1.781 M12.008,0.703c-1.98,0-3.586,2.046-3.586,4.57
            s1.605,4.57,3.586,4.57s3.586-2.046,3.586-4.57S13.988,0.703,12.008,0.703L12.008,0.703z"/>
    </g>
</g>
<path fill="#769933" d="M20.906,22.266c0,0.466-0.381,0.844-0.851,0.844H3.944c-0.469,0-0.85-0.378-0.85-0.844V6.141
    c0-0.466,0.381-0.844,0.85-0.844h16.112c0.47,0,0.851,0.377,0.851,0.844V22.266L20.906,22.266z"/>
<linearGradient id="SVGID_1_" gradientUnits="userSpaceOnUse" x1="8927.125" y1="-12708.002" x2="9254.418" y2="-12380.709" gradientTransform="matrix(0.0469 0 0 -0.0469 -414.3225 -574.0843)">
    <stop  offset="0" style="stop-color:#AFDC3C"/>
    <stop  offset="1" style="stop-color:#D9EBBC"/>
</linearGradient>
<path fill="url(#SVGID_1_)" d="M19.919,21.328c0,0.466-0.378,0.844-0.844,0.844H4.966c-0.466,0-0.844-0.378-0.844-0.844V7.125
    c0-0.466,0.378-0.844,0.844-0.844h14.109c0.466,0,0.844,0.377,0.844,0.844V21.328z"/>
<linearGradient id="SVGID_2_" gradientUnits="userSpaceOnUse" x1="9187.2148" y1="-12376.998" x2="8993.3867" y2="-12712.7178" gradientTransform="matrix(0.0469 0 0 -0.0469 -414.3225 -574.0843)">
    <stop  offset="0" style="stop-color:#9DCC29"/>
    <stop  offset="0.9996" style="stop-color:#5A8029"/>
</linearGradient>
<path fill="url(#SVGID_2_)" d="M18.886,20.259c0,0.466-0.378,0.845-0.845,0.845H5.995c-0.466,0-0.844-0.379-0.844-0.845V8.171
    c0-0.466,0.377-0.844,0.844-0.844h12.047c0.466,0,0.845,0.377,0.845,0.844L18.886,20.259L18.886,20.259z"/>
<polygon fill="#FFFFFF" points="16.866,8.25 15.054,10.078 13.242,8.25 "/>
<rect x="14.517" y="5.284" fill="#657F2B" width="1.077" height="3.951"/>
<polygon fill="#FFFFFF" points="10.795,8.203 8.983,10.031 7.172,8.203 "/>
<rect x="8.422" y="5.286" fill="#657F2B" width="1.077" height="3.948"/>
<path fill="#FFFFFF" d="M13.143,19.037c0,0-1.244-1.27-2.292-3.531c-1.279-2.754-0.394-4.126-0.394-4.126s-0.486,1.485,0.562,3.941
    C11.878,17.34,13.143,19.037,13.143,19.037 M10.604,19.347c-1.306,0.011-1.804-1.079-1.666-1.948
    c0.171-1.025,0.639-1.677,1.273-2.254c0.466,1.104,1.07,2.268,1.927,3.441C11.702,19.114,11.259,19.34,10.604,19.347 M10.763,11.717
    c0.109-0.671,0.674-1.396,1.554-1.402c0.687-0.006,1.148,0.513,1.009,1.314c-0.049,0.31-0.129,0.586-0.434,0.974
    c-0.306,0.391-1.409,1.087-1.94,1.375C10.707,13.198,10.636,12.485,10.763,11.717 M15.023,14.648
    c-0.656,0.005-1.143,0.453-1.43,1.059c-0.287,0.672-0.606,1.445-0.816,1.869c-0.739-1.233-1.296-2.22-1.648-3.106
    c0.564-0.321,1.543-0.812,2.1-1.327c0.556-0.518,0.82-1,0.914-1.557c0.171-1.062-0.443-1.987-1.78-1.974
    c-1.127,0.01-2.459,0.903-2.708,2.375c-0.124,0.756,0.055,1.718,0.336,2.509c-1.006,0.696-1.883,1.459-2.099,2.652
    c-0.31,1.965,0.924,2.853,2.311,2.838c0.949-0.009,1.669-0.438,2.234-1.095c0.439,0.495,1.003,1.065,1.687,1.06
    c0.559-0.005,1.14-0.371,1.593-0.962l-0.197-0.276c-0.423,0.413-0.748,0.578-0.992,0.58c-0.441,0.006-0.902-0.385-1.299-0.998
    c-0.052-0.1-0.117-0.199-0.166-0.296c0.258-0.508,0.445-1.064,0.67-1.557c0.416-0.951,0.677-1.266,1.068-1.268
    c0.654-0.007,0.137,1.093,0.843,1.087c0.326-0.004,0.488-0.281,0.534-0.545C16.236,15.326,15.953,14.639,15.023,14.648"/>
</svg>
