<?xml version="1.0" encoding="utf-8"?>
<!DOCTYPE svg PUBLIC "-//W3C//DTD SVG 1.1//EN" "http://www.w3.org/Graphics/SVG/1.1/DTD/svg11.dtd">
<svg version="1.1" id="Layer_1" xmlns="http://www.w3.org/2000/svg" xmlns:xlink="http://www.w3.org/1999/xlink" x="0px" y="0px"
	 width="600px" height="600px" viewBox="0 0 600 600" enable-background="new 0 0 600 600" xml:space="preserve">
<path fill="#5362A1" d="M600,494.2c0,58.4-47.4,105.8-105.8,105.8H105.8C47.4,600,0,552.6,0,494.2V105.8C0,47.4,47.4,0,105.8,0
	h388.4C552.6,0,600,47.4,600,105.8V494.2z"/>
<path fill="#FFFFFF" d="M312,181.4c62.3,0,128.9,27.7,128.9,105.3c0,75-73.2,119.8-149.3,120c-0.2-12.4-0.4-25.3-0.6-38.2
	c57.6-4.4,88.5-32.3,88.5-78.5c0-39.7-32.2-67.5-78.3-67.5H264c-0.1,115.6,2.3,281.7,6.9,322.9c-24.7-5-45.2-5.1-70.7,0
	c5.8-50.3,9.7-316.6-0.3-364.1c0,0,46.8,1.6,57.1,1.6C269.2,181.5,299.4,181.4,312,181.4"/>
<path fill="#FDD023" d="M38.7,229c0,0,88.5-184.4,258-184.4S562.1,229,562.1,229S455.2,108.1,300.4,108.1
	C145.6,108.1,38.7,229,38.7,229z"/>
</svg>
